PathFileType	3	(X/Y/Z)	E:\ViconData\BIOM9541 2025\Week 7\Wed1100\Hanif deep squat 5 Squat 01.trc
DataRate	CameraRate	NumFrames	NumMarkers	Units	OrigDataRate	OrigDataStartFrame	OrigNumFrames
200.0	200.0	6	19	mm	200.0	1	1698	
Frame#	Time	C7			CLAV			RBAK			LASI			RASI			LPSI			RPSI			LTHI			LKNE			LTIB			LANK			LHEE			LTOE			RTHI			RKNE			RTIB			RANK			RHEE			RTOE			
		X1	Y1	Z1	X2	Y2	Z2	X3	Y3	Z3	X4	Y4	Z4	X5	Y5	Z5	X6	Y6	Z6	X7	Y7	Z7	X8	Y8	Z8	X9	Y9	Z9	X10	Y10	Z10	X11	Y11	Z11	X12	Y12	Z12	X13	Y13	Z13	X14	Y14	Z14	X15	Y15	Z15	X16	Y16	Z16	X17	Y17	Z17	X18	Y18	Z18	X19	Y19	Z19	
1	0.0	340.08777	1312.9769	-1199.9653	187.46635	1253.7551	-1196.8085	353.61356	1229.6361	-1342.9233	175.24243	879.68164	-1071.0542	174.0328	888.9174	-1333.8904	346.985	939.2409	-1157.9803	347.5096	937.0093	-1232.4377	240.90892	550.21857	-999.13556	272.08115	416.63608	-1004.3804	297.17032	217.62312	-966.3421	306.34122	62.476151	-975.3512	326.04971	47.373333	-1032.9133	159.24803	37.353855	-944.70062	235.34596	726.75854	-1396.0221	276.37042	418.34683	-1405.7261	292.5863	331.75769	-1429.9829	303.56992	72.750114	-1427.8005	322.34872	48.040203	-1363.5276	162.45967	39.597221	-1467.722	
2	0.005	340.12549	1312.9764	-1199.9507	188.06557	1253.2831	-1195.876	353.66501	1229.6465	-1342.7942	175.26189	879.62677	-1071.0729	174.0626	888.9746	-1333.8956	346.9936	939.2802	-1157.7751	347.511	936.9492	-1232.4308	240.90022	550.11487	-999.17328	272.09918	416.53369	-1004.433	297.17389	217.51016	-966.41833	306.27036	62.436722	-975.33563	326.03369	47.426426	-1032.9027	159.22879	37.312046	-944.69672	235.36327	726.80005	-1396.0272	276.42355	418.40625	-1405.7104	292.62607	331.81735	-1429.951	303.56009	72.812424	-1427.7778	322.26212	48.037773	-1363.384	162.42146	39.679821	-1467.7139	
3	0.01	340.16449	1313.0234	-1199.9467	188.11092	1253.3065	-1195.7883	353.49802	1228.8771	-1345.6595	175.2704	879.58569	-1071.0864	174.0878	889.0806	-1333.9225	346.9947	939.3129	-1157.5962	347.5017	936.796	-1232.4142	240.87013	550.0647	-999.17334	272.09781	416.47253	-1004.4832	297.12692	217.44263	-966.45172	306.1933	62.396782	-975.29919	326.05368	47.501019	-1032.9246	159.1797	37.363647	-944.70929	235.39229	726.87878	-1396.0366	276.46201	418.50546	-1405.6976	292.65628	331.89352	-1429.9459	303.5665	72.904961	-1427.7548	322.18997	48.031109	-1363.2743	162.39423	39.747974	-1467.704	
4	0.015	340.20422	1313.0507	-1199.9268	188.13666	1253.3281	-1195.8246	353.56467	1228.9592	-1345.6555	175.28191	879.75842	-1070.9352	174.1336	889.1144	-1333.9399	347.0193	939.273	-1157.6484	347.5432	936.845	-1232.3678	240.86957	550.0304	-999.21777	272.07983	416.45193	-1004.4984	297.09732	217.4424	-966.46082	306.18158	62.399601	-975.3269	326.03293	47.513119	-1032.9523	159.14088	37.40358	-944.73145	235.42375	726.91473	-1396.0389	276.50522	418.52057	-1405.703	292.69254	331.9191	-1429.9427	303.59262	72.909416	-1427.7585	322.1839	47.996731	-1363.2533	162.35907	39.783802	-1467.7214	
5	0.02	340.24063	1313.0381	-1199.9436	188.15849	1253.3613	-1195.8799	353.64807	1229.0574	-1345.6011	175.25385	879.80493	-1070.9153	174.1851	889.049	-1333.9467	347.0734	939.2024	-1157.8999	347.6263	936.9042	-1232.4111	240.84575	550.04907	-999.25269	272.04251	416.49753	-1004.4851	297.06958	217.45764	-966.46722	306.22476	62.403603	-975.38483	326.01788	47.472549	-1033.0005	159.10948	37.428249	-944.75372	235.49452	726.85101	-1396.0504	276.56488	418.47876	-1405.7108	292.75305	331.83932	-1429.9385	303.63593	72.819244	-1427.7386	322.20847	47.940441	-1363.3817	162.38083	39.712803	-1467.72	
6	0.025	340.28448	1313.019	-1199.9861	188.1866	1253.3931	-1195.9274	353.69849	1229.1259	-1345.549	175.29942	879.8512	-1070.915	174.2382	889.0115	-1333.965	347.1202	939.1363	-1158.1108	347.6956	936.8879	-1232.4585	240.84383	550.07037	-999.24182	272.0213	416.53311	-1004.4897	297.04495	217.49701	-966.4538	306.33463	62.431728	-975.48615	326.0112	47.459164	-1033.0642	159.08611	37.44669	-944.76105	235.52548	726.80621	-1396.0531	276.60532	418.42709	-1405.7009	292.78967	331.78799	-1429.9491	303.65707	72.73436	-1427.7426	322.22812	47.903641	-1363.4224	162.375	39.643059	-1467.6982	
